# xmcd
#
# Track frame offsets:
#	150
#	13994
#	28527
#	43745
#	56706
#	71279
#	81553
#	92710
#	106888
#	117773
#	129429
#	142515
#	151963
#	161030
# Disc length: 2246 seconds
# Revision: 1
# Processed by: cddbd v1.5.1PL0 Copyright (c) Steve Scherf et al.
#
# Submitted via: libkcddb 0.10
#
DISCID=b208c40e
DTITLE=Precious Bryant - The Truth
DYEAR=1900
DGENRE=Blues
TTITLE0=Morning Train
TTITLE1=Dark Angel
TTITLE2=Don't Jump My Pony
TTITLE3=The Truth
TTITLE4=My Chauffeur
TTITLE5=Sit Down Servant
TTITLE6=If I Could Hear My Mother Pray
TTITLE7=You Can Have My Husband
TTITLE8=Standing At The Station
TTITLE9=Tennessee Song
TTITLE10=My Babe
TTITLE11=Last Time
TTITLE12=Sugar Hill Blues
TTITLE13=Good Night
EXTD=radio vagabond does blues too
EXTT0=
EXTT1=
EXTT2=
EXTT3=
EXTT4=
EXTT5=
EXTT6=
EXTT7=
EXTT8=
EXTT9=
EXTT10=
EXTT11=
EXTT12=
EXTT13=
PLAYORDER=
